<?xml version="1.0" encoding="UTF-8"?>
<svg xmlns="http://www.w3.org/2000/svg" xmlns:xlink="http://www.w3.org/1999/xlink" width="340px" height="383px" viewBox="0 0 340 382" version="1.1">
<defs>
<clipPath id="clip1">
  <path d="M 99.714844 130.515625 L 240.335938 130.515625 L 240.335938 286.074219 L 99.714844 286.074219 Z M 99.714844 130.515625 "/>
</clipPath>
<clipPath id="clip2">
  <path d="M 126.542969 102 L 149 102 L 149 107.808594 L 126.542969 107.808594 Z M 126.542969 102 "/>
</clipPath>
<clipPath id="clip3">
  <path d="M 164 102 L 187 102 L 187 107.808594 L 164 107.808594 Z M 164 102 "/>
</clipPath>
<clipPath id="clip4">
  <path d="M 191 102 L 213.457031 102 L 213.457031 107.808594 L 191 107.808594 Z M 191 102 "/>
</clipPath>
<clipPath id="clip5">
  <path d="M 152 95.925781 L 161 95.925781 L 161 104 L 152 104 Z M 152 95.925781 "/>
</clipPath>
</defs>
<g id="surface1">
<path style=" stroke:none;fill-rule:nonzero;fill:rgb(92.941176%,9.019608%,1.176471%);fill-opacity:1;" d="M 22.257812 240.871094 L 26.242188 245.804688 L 24.226562 239.386719 C 23.746094 236.46875 20.292969 239.917969 22.257812 240.871094 M 26.722656 237.953125 C 28.210938 240.394531 29.695312 242.835938 29.695312 245.328125 C 29.695312 248.777344 32.671875 250.210938 35.117188 251.21875 C 31.664062 247.292969 29.695312 236.46875 26.722656 237.953125 M 216.75 29.285156 C 225.195312 29.285156 233.113281 28.332031 241.984375 30.292969 C 263.765625 35.707031 282.09375 46.53125 294.472656 61.757812 L 329.109375 116.882812 C 330.597656 130.675781 333.570312 145.902344 333.09375 162.667969 C 336.546875 162.667969 336.015625 157.734375 340 156.726562 C 336.015625 166.59375 334.050781 178.902344 333.09375 193.175781 C 330.597656 185.269531 333.09375 173.492188 333.570312 167.070312 C 330.117188 172.484375 328.101562 168.558594 328.101562 166.0625 C 328.632812 162.136719 326.613281 162.667969 325.179688 161.183594 C 319.707031 156.25 316.253906 150.835938 312.269531 142.453125 C 314.765625 136.085938 315.242188 126.75 307.328125 121.816406 C 304.882812 120.328125 301.910156 117.890625 300.421875 113.910156 C 298.402344 108.5 294.949219 102.132812 295.960938 93.75 C 296.4375 91.308594 288.523438 99.160156 284.058594 95.710938 C 264.773438 82.449219 245.492188 67.167969 222.222656 54.382812 C 209.84375 54.382812 200.917969 49.976562 196.457031 44.566406 C 192.523438 39.632812 195.5 33.210938 201.449219 32.734375 C 204.902344 32.734375 208.835938 31.78125 211.808594 33.742188 C 212.339844 31.78125 214.304688 29.285156 216.75 29.285156 M 167.769531 17.984375 L 168.777344 18.464844 C 173.71875 19.472656 176.164062 26.367188 181.632812 23.875 C 181.632812 27.324219 182.113281 30.773438 181.15625 33.210938 C 179.667969 37.191406 175.207031 37.191406 171.753906 37.191406 C 138.550781 35.175781 119.265625 48.96875 98.972656 60.800781 C 93.554688 64.25 87.601562 66.691406 83.140625 71.148438 C 61.835938 90.777344 38.621094 109.027344 33.148438 145.425781 L 28.6875 185.746094 C 28.210938 190.203125 23.269531 194.609375 24.226562 200.019531 L 27.730469 224.160156 C 24.226562 220.710938 22.257812 225.113281 23.269531 227.128906 C 23.746094 228.5625 25.710938 233.496094 28.6875 229.09375 C 32.671875 236.46875 36.601562 250.742188 42.074219 257.105469 C 58.914062 276.789062 80.644531 294.511719 98.492188 312.230469 C 102.957031 311.222656 106.410156 311.222656 107.417969 308.304688 C 108.851562 311.222656 105.929688 314.195312 103.433594 314.671875 C 111.351562 319.605469 120.273438 324.0625 132.121094 325.019531 C 147.476562 326.027344 161.820312 328.46875 175.207031 331.914062 C 182.113281 329.953125 189.070312 328.945312 196.457031 328.46875 C 198.953125 328.46875 200.441406 324.539062 203.414062 323.53125 L 203.894531 318.652344 C 206.867188 323.054688 206.390625 317.167969 204.371094 314.195312 C 207.878906 317.167969 208.835938 319.605469 210.320312 321.570312 C 210.320312 320.085938 214.304688 314.671875 214.304688 321.09375 L 215.261719 314.671875 C 216.75 313.71875 217.28125 320.085938 218.769531 315.679688 C 220.257812 311.222656 223.179688 314.671875 226.152344 313.238281 C 225.195312 315.203125 225.675781 319.128906 229.128906 316.636719 L 233.113281 313.238281 C 235.554688 319.128906 239.539062 316.636719 241.507812 315.679688 C 263.289062 301.886719 285.070312 285.652344 305.839844 269.417969 L 305.363281 275.835938 L 307.804688 267.929688 C 310.304688 270.425781 312.269531 268.460938 313.277344 266.976562 C 316.253906 262.042969 320.183594 257.105469 326.613281 252.703125 C 318.695312 273.871094 309.292969 290.585938 297.445312 304.378906 L 292.507812 310.269531 C 292.507812 313.71875 291.496094 318.121094 287.566406 318.652344 C 285.546875 319.128906 281.617188 317.644531 278.640625 320.613281 C 277.152344 322.578125 282.09375 326.503906 278.164062 323.53125 C 274.65625 321.09375 271.203125 323.53125 267.273438 324.539062 C 264.296875 325.496094 269.238281 328.46875 270.195312 330.429688 C 271.203125 332.394531 272.210938 334.355469 271.679688 336.851562 L 266.261719 330.90625 C 259.835938 334.355469 255.851562 340.777344 250.429688 345.710938 C 247.933594 347.671875 248.945312 351.121094 248.945312 354.039062 C 245.492188 354.039062 241.507812 353.085938 239.539062 355.046875 C 238.054688 357.011719 238.53125 359.980469 238.53125 362.898438 C 233.589844 362.421875 233.113281 355.046875 228.648438 356.535156 C 224.1875 357.488281 219.246094 358.019531 215.261719 360.460938 C 218.238281 366.347656 210.320312 362.898438 211.332031 363.90625 C 203.894531 359.453125 197.464844 356.003906 189.550781 358.972656 C 172.710938 353.5625 151.9375 356.003906 136.585938 358.019531 C 136.585938 355.523438 137.0625 353.085938 136.105469 352.554688 C 135.097656 355.046875 132.121094 354.039062 132.652344 354.039062 C 123.25 347.671875 113.847656 343.746094 103.914062 338.335938 C 95.039062 339.289062 86.59375 334.886719 84.148438 332.394531 C 77.191406 326.027344 69.273438 329.476562 62.847656 327.988281 C 48.980469 324.539062 44.039062 310.269531 42.554688 300.402344 C 41.597656 295.519531 37.613281 293.554688 36.125 294.035156 C 29.695312 273.34375 19.816406 254.667969 11.898438 235.460938 C 9.882812 230.527344 10.414062 225.644531 10.414062 220.234375 C 12.855469 221.1875 15.351562 220.710938 14.820312 217.261719 C 12.378906 201.027344 6.429688 188.71875 0 176.941406 C 3.453125 160.175781 3.984375 140.492188 11.898438 125.742188 C 18.804688 112.476562 31.664062 105.582031 40.585938 94.226562 C 43.5625 90.300781 43.5625 84.890625 46.539062 81.441406 C 56.417969 71.625 66.300781 61.277344 77.191406 52.417969 C 82.132812 48.492188 88.082031 52.417969 95.519531 50.933594 C 98.015625 42.074219 107.898438 34.222656 117.300781 36.660156 C 121.230469 37.667969 129.148438 27.324219 131.644531 26.367188 C 135.628906 24.882812 133.609375 30.292969 133.609375 33.742188 C 143.011719 26.367188 155.867188 22.390625 167.769531 17.984375 "/>
<g clip-path="url(#clip1)" clip-rule="nonzero">
<path style=" stroke:none;fill-rule:nonzero;fill:rgb(92.941176%,9.019608%,1.176471%);fill-opacity:1;" d="M 156.71875 134.070312 L 187.105469 203.628906 L 218.820312 134.070312 L 196.242188 134.070312 L 196.242188 130.515625 L 240.285156 130.515625 L 240.285156 134.070312 L 225.570312 134.070312 L 191.78125 208.296875 L 191.78125 281.832031 L 205.433594 281.832031 L 205.433594 286.074219 L 134.566406 286.074219 L 134.566406 281.832031 L 148.21875 281.832031 L 148.21875 212.488281 L 110.179688 134.070312 L 99.714844 134.070312 L 99.714844 130.515625 L 171.222656 130.515625 L 171.222656 134.070312 Z M 156.71875 134.070312 "/>
</g>
<g clip-path="url(#clip2)" clip-rule="nonzero">
<path style=" stroke:none;fill-rule:nonzero;fill:rgb(100%,56.470588%,54.509804%);fill-opacity:1;" d="M 145.5625 102.398438 L 129.253906 102.398438 C 127.765625 102.398438 126.542969 103.617188 126.542969 105.101562 C 126.542969 106.589844 127.765625 107.808594 129.253906 107.808594 L 145.5625 107.808594 C 147.050781 107.808594 148.273438 106.589844 148.273438 105.101562 C 148.273438 103.617188 147.050781 102.398438 145.5625 102.398438 Z M 145.5625 102.398438 "/>
</g>
<g clip-path="url(#clip3)" clip-rule="nonzero">
<path style=" stroke:none;fill-rule:nonzero;fill:rgb(100%,56.470588%,54.509804%);fill-opacity:1;" d="M 183.601562 102.398438 L 167.289062 102.398438 C 165.804688 102.398438 164.582031 103.617188 164.582031 105.101562 C 164.582031 106.589844 165.804688 107.808594 167.289062 107.808594 L 183.601562 107.808594 C 185.085938 107.808594 186.308594 106.589844 186.308594 105.101562 C 186.308594 103.617188 185.085938 102.398438 183.601562 102.398438 Z M 183.601562 102.398438 "/>
</g>
<g clip-path="url(#clip4)" clip-rule="nonzero">
<path style=" stroke:none;fill-rule:nonzero;fill:rgb(100%,56.470588%,54.509804%);fill-opacity:1;" d="M 210.746094 102.398438 L 194.4375 102.398438 C 192.949219 102.398438 191.726562 103.617188 191.726562 105.101562 C 191.726562 106.589844 192.949219 107.808594 194.4375 107.808594 L 210.746094 107.808594 C 212.234375 107.808594 213.457031 106.589844 213.457031 105.101562 C 213.457031 103.617188 212.234375 102.398438 210.746094 102.398438 Z M 210.746094 102.398438 "/>
</g>
<g clip-path="url(#clip5)" clip-rule="nonzero">
<path style=" stroke:none;fill-rule:nonzero;fill:rgb(100%,56.470588%,54.509804%);fill-opacity:1;" d="M 160.226562 99.691406 C 160.226562 101.8125 158.523438 103.457031 156.398438 103.457031 C 154.328125 103.457031 152.628906 101.8125 152.628906 99.691406 C 152.628906 97.621094 154.328125 95.925781 156.398438 95.925781 C 158.523438 95.925781 160.226562 97.621094 160.226562 99.691406 Z M 160.226562 99.691406 "/>
</g>
</g>
</svg>
